<?xml version="1.0" encoding="UTF-8" standalone="no"?>
<svg width="800" height="400" viewBox="0 0 800 400" xmlns="http://www.w3.org/2000/svg">
  <!-- Background -->
  <rect width="800" height="400" fill="#fef2f2" />
  
  <!-- Browser frame -->
  <rect x="50" y="50" width="700" height="300" rx="8" ry="8" fill="#ffffff" stroke="#e2e8f0" stroke-width="2"/>
  
  <!-- Browser header -->
  <rect x="50" y="50" width="700" height="40" rx="8" ry="8" fill="#f1f5f9"/>
  <circle cx="80" cy="70" r="6" fill="#f87171"/>
  <circle cx="105" cy="70" r="6" fill="#fbbf24"/>
  <circle cx="130" cy="70" r="6" fill="#4ade80"/>
  
  <!-- URL bar -->
  <rect x="160" y="60" width="450" height="20" rx="4" ry="4" fill="#e2e8f0"/>
  <text x="170" y="75" font-family="Arial" font-size="12" fill="#64748b">https://aicloaker.com</text>
  
  <!-- Header -->
  <rect x="50" y="90" width="700" height="60" fill="#ef4444"/>
  <text x="80" y="130" font-family="Arial" font-weight="bold" font-size="24" fill="#ffffff">AICloaker</text>
  
  <!-- Navigation -->
  <rect x="350" y="90" width="400" height="60" fill="#ef4444"/>
  <text x="390" y="130" font-family="Arial" font-size="14" fill="#ffffff">Home</text>
  <text x="460" y="130" font-family="Arial" font-size="14" fill="#ffffff">Features</text>
  <text x="550" y="130" font-family="Arial" font-size="14" fill="#ffffff">Documentation</text>
  <text x="680" y="130" font-family="Arial" font-size="14" fill="#ffffff">Download</text>
  
  <!-- Left panel with code example -->
  <rect x="80" y="180" width="300" height="150" rx="4" ry="4" fill="#111827"/>
  <text x="100" y="205" font-family="monospace" font-size="14" fill="#c7d2fe">import { Component } from 'svelte';</text>
  <text x="100" y="225" font-family="monospace" font-size="14" fill="#c7d2fe"></text>
  <text x="100" y="245" font-family="monospace" font-size="14" fill="#fca5a5">function AICloaker() {</text>
  <text x="120" y="265" font-family="monospace" font-size="14" fill="#e5e7eb">  return (</text>
  <text x="140" y="285" font-family="monospace" font-size="14" fill="#93c5fd">    &lt;div className="container"&gt;</text>
  <text x="160" y="305" font-family="monospace" font-size="14" fill="#93c5fd">      &lt;h1&gt;Professional Template&lt;/h1&gt;</text>
  <text x="140" y="325" font-family="monospace" font-size="14" fill="#93c5fd">    &lt;/div&gt;</text>
  <text x="120" y="345" font-family="monospace" font-size="14" fill="#e5e7eb">  )</text>
  <text x="100" y="365" font-family="monospace" font-size="14" fill="#fca5a5">}</text>
  
  <!-- Right panel with features -->
  <rect x="420" y="180" width="300" height="150" rx="8" ry="8" fill="#fef2f2"/>
  <text x="450" y="210" font-family="Arial" font-weight="bold" font-size="16" fill="#111827">Professional Svelte Template</text>
  
  <rect x="450" y="230" width="240" height="1" fill="#e5e7eb"/>
  
  <circle cx="440" cy="250" r="5" fill="#ef4444"/>
  <text x="450" y="255" font-family="Arial" font-size="14" fill="#4b5563">Performance Optimized</text>
  
  <circle cx="440" cy="280" r="5" fill="#ef4444"/>
  <text x="450" y="285" font-family="Arial" font-size="14" fill="#4b5563">Modern Design System</text>
  
  <circle cx="440" cy="310" r="5" fill="#ef4444"/>
  <text x="450" y="315" font-family="Arial" font-size="14" fill="#4b5563">Developer Experience</text>
  
  <!-- CTA Button -->
  <rect x="540" y="330" width="120" height="40" rx="20" ry="20" fill="#ef4444"/>
  <text x="565" y="355" font-family="Arial" font-weight="bold" font-size="14" fill="#ffffff">Get Started</text>
</svg>