<?xml version="1.0" encoding="UTF-8" standalone="no"?>
<svg width="800" height="400" viewBox="0 0 800 400" xmlns="http://www.w3.org/2000/svg">
  <!-- Background -->
  <rect width="800" height="400" fill="#f0f9ff" />
  
  <!-- Browser frame -->
  <rect x="50" y="50" width="700" height="300" rx="8" ry="8" fill="#ffffff" stroke="#e2e8f0" stroke-width="2"/>
  
  <!-- Browser header -->
  <rect x="50" y="50" width="700" height="40" rx="8" ry="8" fill="#f1f5f9"/>
  <circle cx="80" cy="70" r="6" fill="#f87171"/>
  <circle cx="105" cy="70" r="6" fill="#fbbf24"/>
  <circle cx="130" cy="70" r="6" fill="#4ade80"/>
  
  <!-- URL bar -->
  <rect x="160" y="60" width="450" height="20" rx="4" ry="4" fill="#e2e8f0"/>
  <text x="170" y="75" font-family="Arial" font-size="12" fill="#64748b">https://aiclubwm.com</text>
  
  <!-- Header -->
  <rect x="50" y="90" width="700" height="60" fill="#0369a1"/>
  <text x="80" y="130" font-family="Arial" font-weight="bold" font-size="22" fill="#ffffff">AI Club at William & Mary</text>
  
  <!-- Navigation -->
  <rect x="400" y="110" width="300" height="20" fill="#0369a1"/>
  <rect x="420" y="110" width="50" height="20" fill="#0284c7"/>
  <text x="425" y="125" font-family="Arial" font-size="12" fill="#ffffff">Home</text>
  <text x="495" y="125" font-family="Arial" font-size="12" fill="#ffffff">Events</text>
  <text x="565" y="125" font-family="Arial" font-size="12" fill="#ffffff">Projects</text>
  <text x="635" y="125" font-family="Arial" font-size="12" fill="#ffffff">Join</text>
  
  <!-- Hero image/banner -->
  <rect x="80" y="170" width="640" height="120" rx="8" ry="8" fill="#bae6fd"/>
  <text x="100" y="220" font-family="Arial" font-weight="bold" font-size="28" fill="#0c4a6e">Advancing AI Education</text>
  <text x="100" y="250" font-family="Arial" font-size="16" fill="#0e7490">Join our community of AI enthusiasts at William & Mary</text>
  
  <!-- Content cards -->
  <rect x="80" y="310" width="200" height="80" rx="4" ry="4" fill="#ffffff" stroke="#e2e8f0" stroke-width="1"/>
  <rect x="90" y="320" width="180" height="15" rx="2" ry="2" fill="#e2e8f0"/>
  <rect x="90" y="345" width="150" height="8" rx="2" ry="2" fill="#e2e8f0"/>
  <rect x="90" y="360" width="170" height="8" rx="2" ry="2" fill="#e2e8f0"/>
  <rect x="90" y="375" width="120" height="8" rx="2" ry="2" fill="#e2e8f0"/>
  
  <rect x="300" y="310" width="200" height="80" rx="4" ry="4" fill="#ffffff" stroke="#e2e8f0" stroke-width="1"/>
  <rect x="310" y="320" width="180" height="15" rx="2" ry="2" fill="#e2e8f0"/>
  <rect x="310" y="345" width="150" height="8" rx="2" ry="2" fill="#e2e8f0"/>
  <rect x="310" y="360" width="170" height="8" rx="2" ry="2" fill="#e2e8f0"/>
  <rect x="310" y="375" width="120" height="8" rx="2" ry="2" fill="#e2e8f0"/>
  
  <rect x="520" y="310" width="200" height="80" rx="4" ry="4" fill="#ffffff" stroke="#e2e8f0" stroke-width="1"/>
  <rect x="530" y="320" width="180" height="15" rx="2" ry="2" fill="#e2e8f0"/>
  <rect x="530" y="345" width="150" height="8" rx="2" ry="2" fill="#e2e8f0"/>
  <rect x="530" y="360" width="170" height="8" rx="2" ry="2" fill="#e2e8f0"/>
  <rect x="530" y="375" width="120" height="8" rx="2" ry="2" fill="#e2e8f0"/>
</svg>