<?xml version="1.0" encoding="UTF-8" standalone="no"?>
<svg width="800" height="400" viewBox="0 0 800 400" xmlns="http://www.w3.org/2000/svg">
  <!-- Background -->
  <rect width="800" height="400" fill="#f8fafc" />
  
  <!-- Browser frame -->
  <rect x="50" y="50" width="700" height="300" rx="8" ry="8" fill="#ffffff" stroke="#e2e8f0" stroke-width="2"/>
  
  <!-- Browser header -->
  <rect x="50" y="50" width="700" height="40" rx="8" ry="8" fill="#f1f5f9"/>
  <circle cx="80" cy="70" r="6" fill="#f87171"/>
  <circle cx="105" cy="70" r="6" fill="#fbbf24"/>
  <circle cx="130" cy="70" r="6" fill="#4ade80"/>
  
  <!-- URL bar -->
  <rect x="160" y="60" width="450" height="20" rx="4" ry="4" fill="#e2e8f0"/>
  <text x="170" y="75" font-family="Arial" font-size="12" fill="#64748b">https://genedu.co</text>
  
  <!-- Content -->
  <rect x="80" y="120" width="360" height="60" rx="4" ry="4" fill="#2563eb"/>
  <text x="100" y="160" font-family="Arial" font-weight="bold" font-size="24" fill="#ffffff">GenEdu.co</text>
  <text x="100" y="185" font-family="Arial" font-size="14" fill="#2563eb">AI-powered educational platform</text>
  
  <!-- Feature sections -->
  <rect x="80" y="220" width="170" height="100" rx="6" ry="6" fill="#f8fafc" stroke="#e2e8f0" stroke-width="1"/>
  <rect x="90" y="235" width="40" height="40" rx="6" ry="6" fill="#dbeafe"/>
  <rect x="90" y="285" width="150" height="10" rx="2" ry="2" fill="#e2e8f0"/>
  <rect x="90" y="305" width="120" height="6" rx="2" ry="2" fill="#e2e8f0"/>
  
  <rect x="270" y="220" width="170" height="100" rx="6" ry="6" fill="#f8fafc" stroke="#e2e8f0" stroke-width="1"/>
  <rect x="280" y="235" width="40" height="40" rx="6" ry="6" fill="#dbeafe"/>
  <rect x="280" y="285" width="150" height="10" rx="2" ry="2" fill="#e2e8f0"/>
  <rect x="280" y="305" width="120" height="6" rx="2" ry="2" fill="#e2e8f0"/>
  
  <rect x="460" y="220" width="170" height="100" rx="6" ry="6" fill="#f8fafc" stroke="#e2e8f0" stroke-width="1"/>
  <rect x="470" y="235" width="40" height="40" rx="6" ry="6" fill="#dbeafe"/>
  <rect x="470" y="285" width="150" height="10" rx="2" ry="2" fill="#e2e8f0"/>
  <rect x="470" y="305" width="120" height="6" rx="2" ry="2" fill="#e2e8f0"/>
  
  <!-- Sidebar -->
  <rect x="500" y="120" width="150" height="100" rx="6" ry="6" fill="#f1f5f9"/>
  <rect x="515" y="140" width="120" height="10" rx="2" ry="2" fill="#e2e8f0"/>
  <rect x="515" y="160" width="120" height="10" rx="2" ry="2" fill="#e2e8f0"/>
  <rect x="515" y="180" width="120" height="10" rx="2" ry="2" fill="#e2e8f0"/>
  <rect x="515" y="200" width="80" height="10" rx="2" ry="2" fill="#e2e8f0"/>
</svg>