<?xml version="1.0" encoding="UTF-8" standalone="no"?>
<svg width="800" height="400" viewBox="0 0 800 400" xmlns="http://www.w3.org/2000/svg">
  <!-- Background -->
  <rect width="800" height="400" fill="#f5f3ff" />
  
  <!-- Browser frame -->
  <rect x="50" y="50" width="700" height="300" rx="8" ry="8" fill="#ffffff" stroke="#e2e8f0" stroke-width="2"/>
  
  <!-- Browser header -->
  <rect x="50" y="50" width="700" height="40" rx="8" ry="8" fill="#f1f5f9"/>
  <circle cx="80" cy="70" r="6" fill="#f87171"/>
  <circle cx="105" cy="70" r="6" fill="#fbbf24"/>
  <circle cx="130" cy="70" r="6" fill="#4ade80"/>
  
  <!-- URL bar -->
  <rect x="160" y="60" width="450" height="20" rx="4" ry="4" fill="#e2e8f0"/>
  <text x="170" y="75" font-family="Arial" font-size="12" fill="#64748b">https://habitsofmindai.netlify.app</text>
  
  <!-- Navigation -->
  <rect x="50" y="90" width="700" height="50" fill="#8b5cf6"/>
  <text x="80" y="122" font-family="Arial" font-weight="bold" font-size="20" fill="#ffffff">Habits of Mind AI</text>
  <rect x="400" y="105" width="300" height="20" fill="#8b5cf6"/>
  <text x="430" y="122" font-family="Arial" font-size="14" fill="#ffffff">Home</text>
  <text x="500" y="122" font-family="Arial" font-size="14" fill="#ffffff">Features</text>
  <text x="580" y="122" font-family="Arial" font-size="14" fill="#ffffff">Resources</text>
  <text x="680" y="122" font-family="Arial" font-size="14" fill="#ffffff">Login</text>
  
  <!-- Main content -->
  <rect x="80" y="170" width="350" height="150" rx="4" ry="4" fill="#ffffff" stroke="#e2e8f0" stroke-width="1"/>
  <text x="100" y="200" font-family="Arial" font-weight="bold" font-size="24" fill="#7c3aed">Develop Effective Thinking Habits</text>
  <rect x="100" y="215" width="310" height="2" fill="#e9d5ff"/>
  <rect x="100" y="230" width="310" height="10" rx="2" ry="2" fill="#f3f4f6"/>
  <rect x="100" y="250" width="290" height="10" rx="2" ry="2" fill="#f3f4f6"/>
  <rect x="100" y="270" width="320" height="10" rx="2" ry="2" fill="#f3f4f6"/>
  <rect x="100" y="290" width="200" height="10" rx="2" ry="2" fill="#f3f4f6"/>
  
  <!-- Brain illustration -->
  <circle cx="550" cy="230" r="80" fill="#ddd6fe"/>
  <path d="M550,170 C500,170 480,200 480,230 C480,260 500,290 550,290 C600,290 620,260 620,230 C620,200 600,170 550,170 Z" fill="#c4b5fd"/>
  <path d="M550,190 C515,190 500,210 500,230 C500,250 515,270 550,270 C585,270 600,250 600,230 C600,210 585,190 550,190 Z" fill="#ede9fe"/>
  <path d="M550,210 C530,210 520,220 520,230 C520,240 530,250 550,250 C570,250 580,240 580,230 C580,220 570,210 550,210 Z" fill="#8b5cf6"/>
  
  <!-- Feature cards -->
  <rect x="80" y="330" width="160" height="60" rx="4" ry="4" fill="#ffffff" stroke="#e2e8f0" stroke-width="1"/>
  <rect x="90" y="340" width="140" height="12" rx="2" ry="2" fill="#e2e8f0"/>
  <rect x="90" y="360" width="120" height="8" rx="2" ry="2" fill="#e2e8f0"/>
  <rect x="90" y="375" width="130" height="8" rx="2" ry="2" fill="#e2e8f0"/>
  
  <rect x="260" y="330" width="160" height="60" rx="4" ry="4" fill="#ffffff" stroke="#e2e8f0" stroke-width="1"/>
  <rect x="270" y="340" width="140" height="12" rx="2" ry="2" fill="#e2e8f0"/>
  <rect x="270" y="360" width="120" height="8" rx="2" ry="2" fill="#e2e8f0"/>
  <rect x="270" y="375" width="130" height="8" rx="2" ry="2" fill="#e2e8f0"/>
  
  <rect x="440" y="330" width="160" height="60" rx="4" ry="4" fill="#ffffff" stroke="#e2e8f0" stroke-width="1"/>
  <rect x="450" y="340" width="140" height="12" rx="2" ry="2" fill="#e2e8f0"/>
  <rect x="450" y="360" width="120" height="8" rx="2" ry="2" fill="#e2e8f0"/>
  <rect x="450" y="375" width="130" height="8" rx="2" ry="2" fill="#e2e8f0"/>
  
  <rect x="620" y="330" width="160" height="60" rx="4" ry="4" fill="#ffffff" stroke="#e2e8f0" stroke-width="1"/>
  <rect x="630" y="340" width="140" height="12" rx="2" ry="2" fill="#e2e8f0"/>
  <rect x="630" y="360" width="120" height="8" rx="2" ry="2" fill="#e2e8f0"/>
  <rect x="630" y="375" width="130" height="8" rx="2" ry="2" fill="#e2e8f0"/>
</svg>